<?xml version="1.0" encoding="utf-8"?>
<svg xmlns="http://www.w3.org/2000/svg" viewBox="722.734 113.1993 243.559 65.9997" width="243.559px" height="65.9997px"><g id="object-0" transform="matrix(1, 0, 0, 1, 7.105427357601002e-15, 1.4210854715202004e-14)"><path d="M 779.921 158.424 L 779.887 158.316 L 801.543 138.49 L 801.543 128.938 L 766.8 128.938 L 766.8 138.49 L 787.552 138.49 L 787.586 138.582 L 766.142 158.424 L 766.142 167.977 L 801.892 167.977 L 801.892 158.424 L 779.921 158.424 Z" fill="#201515"/><path d="M 823.221 128.029 C 819.213 128.029 815.947 128.633 813.423 129.842 C 811.071 130.895 809.09 132.631 807.737 134.824 C 806.443 137.031 805.63 139.487 805.352 142.031 L 815.894 143.513 C 816.275 141.266 817.038 139.674 818.182 138.736 C 819.482 137.755 821.085 137.26 822.712 137.335 C 824.852 137.335 826.404 137.907 827.368 139.051 C 828.324 140.195 828.81 141.779 828.81 143.867 L 828.81 144.908 L 818.674 144.908 C 813.514 144.908 809.808 146.052 807.554 148.34 C 805.301 150.628 804.176 153.648 804.179 157.4 C 804.179 161.244 805.304 164.104 807.554 165.98 C 809.804 167.856 812.634 168.789 816.043 168.777 C 820.272 168.777 823.525 167.323 825.801 164.413 C 827.146 162.625 828.106 160.578 828.621 158.401 L 829.004 158.401 L 830.457 167.954 L 840.009 167.954 L 840.009 143.764 C 840.009 138.765 838.692 134.893 836.057 132.147 C 833.422 129.401 829.143 128.029 823.221 128.029 Z M 826.562 157.847 C 825.046 159.111 823.061 159.74 820.59 159.74 C 818.554 159.74 817.139 159.383 816.346 158.67 C 815.959 158.333 815.652 157.915 815.445 157.445 C 815.239 156.975 815.138 156.466 815.15 155.953 C 815.128 155.47 815.204 154.986 815.374 154.533 C 815.544 154.08 815.805 153.666 816.14 153.316 C 816.502 152.976 816.93 152.714 817.397 152.543 C 817.864 152.373 818.361 152.3 818.857 152.327 L 828.827 152.327 L 828.827 152.985 C 828.847 153.914 828.653 154.836 828.261 155.679 C 827.868 156.522 827.287 157.264 826.562 157.847 Z" fill="#201515"/><path d="M 897.773 128.938 L 886.483 128.938 L 886.483 167.982 L 897.773 167.982 L 897.773 128.938 Z" fill="#201515"/><path d="M 964.403 128.938 C 961.213 128.938 958.703 130.063 956.863 132.313 C 955.543 133.93 954.543 136.319 953.853 139.48 L 953.523 139.48 L 952.043 128.938 L 942.403 128.938 L 942.403 167.977 L 953.693 167.977 L 953.693 147.957 C 953.693 145.433 954.283 143.497 955.463 142.151 C 956.643 140.805 958.833 140.132 962.013 140.132 L 966.293 140.132 L 966.293 128.938 L 964.403 128.938 Z" fill="#201515"/><path d="M 931.203 130.214 C 928.573 128.646 925.253 127.865 921.243 127.869 C 914.923 127.869 909.983 129.667 906.413 133.262 C 902.843 136.858 901.063 141.816 901.063 148.134 C 900.963 151.954 901.803 155.74 903.493 159.168 C 905.033 162.223 907.443 164.758 910.413 166.461 C 913.403 168.188 916.953 169.054 921.083 169.058 C 924.643 169.058 927.623 168.509 930.013 167.41 C 932.263 166.424 934.213 164.878 935.693 162.92 C 937.103 160.998 938.153 158.835 938.783 156.537 L 929.063 153.814 C 928.653 155.308 927.863 156.672 926.773 157.772 C 925.673 158.87 923.833 159.42 921.253 159.42 C 918.183 159.42 915.893 158.541 914.393 156.783 C 913.303 155.513 912.613 153.7 912.313 151.349 L 938.933 151.349 C 939.043 150.251 939.103 149.33 939.103 148.586 L 939.103 146.155 C 939.163 142.889 938.493 139.651 937.123 136.683 C 935.853 133.979 933.793 131.724 931.203 130.214 Z M 920.913 137.175 C 925.493 137.175 928.083 139.427 928.693 143.93 L 912.513 143.93 C 912.763 142.427 913.393 141.011 914.323 139.806 C 915.803 138.048 918.003 137.171 920.913 137.175 Z" fill="#201515"/><path d="M 892.253 113.203 C 891.403 113.174 890.553 113.316 889.763 113.621 C 888.973 113.925 888.243 114.386 887.633 114.976 C 887.033 115.571 886.563 116.286 886.243 117.073 C 885.933 117.861 885.793 118.705 885.823 119.552 C 885.793 120.404 885.933 121.253 886.243 122.047 C 886.563 122.84 887.033 123.561 887.633 124.164 C 888.243 124.766 888.963 125.238 889.753 125.55 C 890.553 125.862 891.393 126.006 892.253 125.975 C 893.093 126.007 893.943 125.863 894.723 125.55 C 895.513 125.238 896.233 124.765 896.823 124.162 C 897.413 123.552 897.873 122.83 898.183 122.038 C 898.483 121.245 898.623 120.4 898.593 119.552 C 898.633 118.709 898.493 117.867 898.193 117.08 C 897.883 116.293 897.423 115.579 896.823 114.982 C 896.223 114.385 895.513 113.919 894.723 113.613 C 893.943 113.308 893.103 113.17 892.253 113.208 L 892.253 113.203 Z" fill="#201515"/><path d="M 868.935 127.869 C 865.091 127.869 862.002 129.075 859.669 131.489 C 857.941 133.278 856.673 135.947 855.865 139.497 L 855.505 139.497 L 854.029 128.955 L 844.391 128.955 L 844.391 179.199 L 855.676 179.199 L 855.676 158.504 L 856.088 158.504 C 856.432 159.884 856.915 161.226 857.529 162.508 C 858.484 164.598 860.05 166.349 862.02 167.53 C 864.062 168.645 866.363 169.2 868.689 169.138 C 873.414 169.138 877.013 167.298 879.483 163.618 C 881.953 159.938 883.193 154.804 883.193 148.214 C 883.193 141.85 881.993 136.868 879.603 133.268 C 877.213 129.668 873.656 127.869 868.935 127.869 Z M 870.079 156.159 C 868.763 158.066 866.704 159.019 863.901 159.019 C 862.746 159.073 861.594 158.85 860.542 158.369 C 859.489 157.889 858.566 157.165 857.85 156.256 C 856.389 154.422 855.661 151.911 855.665 148.723 L 855.665 147.98 C 855.665 144.742 856.393 142.264 857.85 140.544 C 859.306 138.824 861.324 137.974 863.901 137.993 C 866.754 137.993 868.826 138.898 870.119 140.71 C 871.412 142.521 872.058 145.047 872.058 148.289 C 872.066 151.64 871.41 154.264 870.09 156.159 L 870.079 156.159 Z" fill="#201515"/><path d="M 761.778 158.424 L 722.734 158.424 L 722.734 167.988 L 761.778 167.988 L 761.778 158.424 Z" fill="#FF4F00"/></g></svg>